<?xml version="1.0" encoding="UTF-8" standalone="no"?>
<!-- Created with Inkscape (http://www.inkscape.org/) -->

<svg
   width="210mm"
   height="297mm"
   viewBox="0 0 210 297"
   version="1.1"
   id="svg1"
   xml:space="preserve"
   inkscape:version="1.3.2 (091e20ef0f, 2023-11-25)"
   sodipodi:docname="chunk.svg"
   xmlns:inkscape="http://www.inkscape.org/namespaces/inkscape"
   xmlns:sodipodi="http://sodipodi.sourceforge.net/DTD/sodipodi-0.dtd"
   xmlns="http://www.w3.org/2000/svg"
   xmlns:svg="http://www.w3.org/2000/svg"><sodipodi:namedview
     id="namedview1"
     pagecolor="#ffffff"
     bordercolor="#000000"
     borderopacity="0.25"
     inkscape:showpageshadow="2"
     inkscape:pageopacity="0.0"
     inkscape:pagecheckerboard="0"
     inkscape:deskcolor="#d1d1d1"
     inkscape:document-units="mm"
     inkscape:zoom="0.70710678"
     inkscape:cx="496.38896"
     inkscape:cy="461.74073"
     inkscape:window-width="2560"
     inkscape:window-height="1377"
     inkscape:window-x="-8"
     inkscape:window-y="-8"
     inkscape:window-maximized="1"
     inkscape:current-layer="layer1" /><defs
     id="defs1" /><g
     inkscape:label="Layer 1"
     inkscape:groupmode="layer"
     id="layer1"><text
       xml:space="preserve"
       style="font-size:8.46667px;font-family:Consolas;-inkscape-font-specification:Consolas;fill:#000000;stroke:#000000;stroke-width:0.529167"
       x="12.892275"
       y="191.04219"
       id="text1"><tspan
         sodipodi:role="line"
         id="tspan1"
         style="stroke-width:0.529167"
         x="12.892275"
         y="191.04219">Base </tspan><tspan
         sodipodi:role="line"
         style="stroke-width:0.529167"
         x="12.892275"
         y="201.62553"
         id="tspan2">Pointer</tspan></text><text
       xml:space="preserve"
       style="font-size:8.46667px;font-family:Consolas;-inkscape-font-specification:Consolas;fill:#000000;stroke:#000000;stroke-width:0.529167"
       x="166.44371"
       y="147.06973"
       id="text3"><tspan
         sodipodi:role="line"
         id="tspan3"
         style="stroke-width:0.529167"
         x="166.44371"
         y="147.06973">Chunk</tspan><tspan
         sodipodi:role="line"
         style="stroke-width:0.529167"
         x="166.44371"
         y="157.65308"
         id="tspan4">Content</tspan></text><text
       xml:space="preserve"
       style="font-size:8.46667px;font-family:Consolas;-inkscape-font-specification:Consolas;fill:#000000;stroke:#000000;stroke-width:0.529167"
       x="82.979218"
       y="212.86681"
       id="text5"><tspan
         sodipodi:role="line"
         id="tspan5"
         style="stroke-width:0.529167"
         x="82.979218"
         y="212.86681">Length</tspan><tspan
         sodipodi:role="line"
         style="stroke-width:0.529167"
         x="82.979218"
         y="223.45015"
         id="tspan6">Prefix</tspan></text><text
       xml:space="preserve"
       style="font-size:12.7px;font-family:Consolas;-inkscape-font-specification:Consolas;fill:#000000;stroke:#000000;stroke-width:0.529167"
       x="93.652885"
       y="197.72371"
       id="text7"><tspan
         sodipodi:role="line"
         id="tspan7"
         style="font-size:12.7px;stroke-width:0.529167"
         x="93.652885"
         y="197.72371">0</tspan></text><text
       xml:space="preserve"
       style="font-size:12.7px;font-family:Consolas;-inkscape-font-specification:Consolas;fill:#000000;stroke:#000000;stroke-width:0.529167"
       x="93.634712"
       y="176.13931"
       id="text8"><tspan
         sodipodi:role="line"
         id="tspan8"
         style="font-size:12.7px;stroke-width:0.529167"
         x="93.634712"
         y="176.13931">1</tspan></text><text
       xml:space="preserve"
       style="font-size:12.7px;font-family:Consolas;-inkscape-font-specification:Consolas;fill:#000000;stroke:#000000;stroke-width:0.529167"
       x="86.573769"
       y="107.40051"
       id="text9"><tspan
         sodipodi:role="line"
         id="tspan9"
         style="stroke-width:0.529167"
         x="86.573769"
         y="107.40051">n-1</tspan></text><text
       xml:space="preserve"
       style="font-size:12.7px;font-family:Consolas;-inkscape-font-specification:Consolas;fill:#000000;stroke:#000000;stroke-width:0.529167"
       x="93.649307"
       y="84.894402"
       id="text10"><tspan
         sodipodi:role="line"
         id="tspan10"
         style="stroke-width:0.529167"
         x="93.649307"
         y="84.894402">n</tspan></text><path
       fill="currentColor"
       d="M 67.684703,195.6351 H 48.045069 c -1.08402,0 -1.963953,-0.87994 -1.963953,-1.96397 0,-1.08401 0.879934,-1.96395 1.963954,-1.96395 h 19.639633 v -6.87387 h -3.927921 c -1.084018,0 -1.963969,-0.87995 -1.963969,-1.96397 0,-1.08402 0.879951,-1.96396 1.963969,-1.96396 h 3.927921 c 2.168037,0 3.927921,1.75989 3.927921,3.92793 v 17.67567 c 0,2.16803 -1.759884,3.92792 -3.927921,3.92792 h -3.927921 c -1.084018,0 -1.963969,-0.87994 -1.963969,-1.96396 0,-1.08402 0.879951,-1.96396 1.963969,-1.96396 h 3.927921 z M 75.540559,72.88742 v 49.09908 c 0,1.17838 0.879936,1.96395 1.96395,1.96395 1.084026,0 1.96397,-0.87994 1.96397,-1.96395 v -5.89189 h 35.351331 v 5.89189 c 0,1.08401 0.87995,1.96395 1.96397,1.96395 1.08401,0 1.96396,-0.78557 1.96396,-1.96395 V 72.88742 c 0,-2.168037 -1.75989,-3.92792 -3.92793,-3.92792 H 79.468479 c -2.16803,0 -3.92792,1.759883 -3.92792,3.92792 z M 142.31529,68.9595 h -11.78378 c -1.17838,0 -1.96396,0.879933 -1.96396,1.963953 0,1.084018 0.87994,1.963967 1.96396,1.963967 h 11.78378 c 4.33643,0 7.85586,3.519409 7.85586,7.855861 v 58.918879 c 0,4.09711 2.09477,7.70816 5.27084,9.81981 -3.1761,2.11164 -5.27084,5.72271 -5.27084,9.81982 v 39.27926 c 0,2.16803 -1.75991,3.92793 -3.92793,3.92793 h -15.71171 c -1.08402,0 -1.96396,0.87994 -1.96396,1.96396 0,1.08402 0.87994,1.96396 1.96396,1.96396 h 15.71171 c 4.33643,0.006 7.85011,-3.51365 7.85585,-7.85585 v -39.27926 c 0,-4.33643 3.5194,-7.85585 7.85585,-7.85585 v 0 c 1.08402,0 1.96396,-0.87994 1.96396,-1.96397 0,-1.08401 -0.87994,-1.96396 -1.96396,-1.96396 v 0 c -4.33643,0 -7.85585,-3.5194 -7.85585,-7.85585 V 80.743281 c 0,-6.5045 -5.27929,-11.783781 -11.78378,-11.783781 z m -27.49548,76.59455 c 0,1.17838 0.78559,1.96396 1.96397,1.96396 1.17837,0 1.96396,-0.78558 1.96396,-1.96396 0,-1.17838 -0.78559,-1.96397 -1.96396,-1.96397 -1.17838,0 -1.96397,0.78559 -1.96397,1.96397 z m 0,-7.85586 c 0,1.17838 0.78559,1.96397 1.96397,1.96397 1.17837,0 1.96396,-0.78559 1.96396,-1.96397 0,-1.17837 -0.78559,-1.96397 -1.96396,-1.96397 -1.17838,0 -1.96397,0.7856 -1.96397,1.96397 z m 0,-7.85585 c 0,1.17837 0.78559,1.96397 1.96397,1.96397 1.17837,0 1.96396,-0.7856 1.96396,-1.96397 0,-1.17838 -0.78559,-1.96395 -1.96396,-1.96395 -1.17838,0 -1.96397,0.78557 -1.96397,1.96395 z m -39.27925,15.71171 c 0,1.17838 0.785576,1.96396 1.96395,1.96396 1.178378,0 1.96397,-0.78558 1.96397,-1.96396 0,-1.17838 -0.785592,-1.96397 -1.96397,-1.96397 -1.178374,0 -1.96395,0.78559 -1.96395,1.96397 z m 0,-7.85586 c 0,1.17838 0.785576,1.96397 1.96395,1.96397 1.178378,0 1.96397,-0.78559 1.96397,-1.96397 0,-1.17837 -0.785592,-1.96397 -1.96397,-1.96397 -1.178374,0 -1.96395,0.7856 -1.96395,1.96397 z m 0,-7.85585 c 0,1.17837 0.785576,1.96397 1.96395,1.96397 1.178378,0 1.96397,-0.7856 1.96397,-1.96397 0,-1.17838 -0.785592,-1.96395 -1.96397,-1.96395 -1.178374,0 -1.96395,0.78557 -1.96395,1.96395 z M 114.81981,72.88742 V 90.563088 H 79.468479 V 72.88742 Z m 0,21.603587 V 112.16667 H 79.468479 V 94.491007 Z m 3.92793,58.918893 c 0,-1.08403 -0.87995,-1.96396 -1.96396,-1.96396 -1.08402,0 -1.96397,0.87993 -1.96397,1.96396 v 5.89189 H 79.468479 v -5.89189 c 0,-1.08403 -0.879943,-1.96396 -1.96397,-1.96396 -1.084014,0 -1.96395,0.87993 -1.96395,1.96396 v 70.70266 c 0,2.35676 1.75989,3.92794 3.92792,3.92794 h 35.351331 c 2.16804,0 3.92793,-1.7599 3.92793,-3.92794 z m -3.92793,9.81982 v 17.67566 H 79.468479 v -17.67566 z m 0,21.60359 v 17.67567 H 79.468479 v -17.67567 z m 0,21.60359 v 17.67566 H 79.468479 V 206.4369 Z"
       id="path1"
       style="stroke-width:0.264583" /></g></svg>
