<?xml version="1.0" encoding="UTF-8" standalone="no"?>
<!-- Created with Inkscape (http://www.inkscape.org/) -->

<svg
   width="210mm"
   height="297mm"
   viewBox="0 0 210 297"
   version="1.1"
   id="svg1"
   xml:space="preserve"
   inkscape:version="1.3.2 (091e20ef0f, 2023-11-25)"
   sodipodi:docname="memory.svg"
   xmlns:inkscape="http://www.inkscape.org/namespaces/inkscape"
   xmlns:sodipodi="http://sodipodi.sourceforge.net/DTD/sodipodi-0.dtd"
   xmlns="http://www.w3.org/2000/svg"
   xmlns:svg="http://www.w3.org/2000/svg"><sodipodi:namedview
     id="namedview1"
     pagecolor="#ffffff"
     bordercolor="#000000"
     borderopacity="0.25"
     inkscape:showpageshadow="2"
     inkscape:pageopacity="0.0"
     inkscape:pagecheckerboard="0"
     inkscape:deskcolor="#d1d1d1"
     inkscape:document-units="mm"
     inkscape:zoom="1.4142136"
     inkscape:cx="700.74282"
     inkscape:cy="689.78266"
     inkscape:window-width="2560"
     inkscape:window-height="1377"
     inkscape:window-x="-8"
     inkscape:window-y="-8"
     inkscape:window-maximized="1"
     inkscape:current-layer="layer1" /><defs
     id="defs1" /><g
     inkscape:label="Layer 1"
     inkscape:groupmode="layer"
     id="layer1"><path
       fill="currentColor"
       d="m 108.20833,205.36458 c 0,-2.921 2.37066,-5.29166 5.29167,-5.29166 v 0 c 0.73019,0 1.32291,-0.59273 1.32291,-1.32292 0,-0.73019 -0.59272,-1.32292 -1.32291,-1.32292 v 0 c -2.921,0 -5.29167,-2.37065 -5.29167,-5.29166 v -39.6875 c 0,-2.75979 -1.41102,-5.19219 -3.55042,-6.61459 2.13941,-1.42239 3.55042,-3.85479 3.55042,-6.61458 V 99.531254 c 0,-2.920999 2.37066,-5.291666 5.29167,-5.291666 v 0 c 0.73019,0 1.32291,-0.592727 1.32291,-1.322916 0,-0.730189 -0.59272,-1.322917 -1.32291,-1.322917 v 0 c -2.921,0 -5.29167,-2.370656 -5.29167,-5.291667 V 45.291672 c -0.004,-2.924889 -2.37066,-5.29553 -5.29167,-5.291667 H 87.041665 c -0.730189,0 -1.322916,0.592728 -1.322916,1.322917 0,0.730189 0.592727,1.322917 1.322916,1.322917 h 15.874995 c 1.46038,0 2.64584,1.185457 2.64584,2.645833 v 41.010416 c 0,2.75979 1.41102,5.192184 3.55041,6.614584 -2.1394,1.422394 -3.55041,3.854792 -3.55041,6.614582 v 39.687496 c 0,2.921 -2.37066,5.29167 -5.29167,5.29167 H 87.041665 c -0.730189,0 -1.322916,0.59272 -1.322916,1.32291 0,0.73019 0.592727,1.32292 1.322916,1.32292 h 13.229165 c 2.921,0 5.29167,2.37066 5.29167,5.29167 v 39.6875 c 0,2.75979 1.41102,5.19218 3.55041,6.61458 -2.1394,1.42239 -3.55041,3.85479 -3.55041,6.61458 V 246.375 c 0,1.46038 -1.18546,2.64583 -2.64584,2.64583 H 87.041665 c -0.730189,0 -1.322916,0.59273 -1.322916,1.32292 0,0.73019 0.592727,1.32292 1.322916,1.32292 h 15.874995 c 3.067,0 5.29167,-2.36704 5.29167,-5.29167 z M 76.458332,95.562505 c 0,-0.79375 0.529167,-1.322917 1.322917,-1.322917 0.79375,0 1.322916,0.529167 1.322916,1.322917 0,0.79375 -0.529166,1.322919 -1.322916,1.322919 -0.79375,0 -1.322917,-0.529169 -1.322917,-1.322919 z m 0,5.291665 c 0,-0.79375 0.529167,-1.322916 1.322917,-1.322916 0.79375,0 1.322916,0.529166 1.322916,1.322916 0,0.79375 -0.529166,1.32291 -1.322916,1.32291 -0.79375,0 -1.322917,-0.52916 -1.322917,-1.32291 z m 0,5.29166 c 0,-0.79375 0.529167,-1.32291 1.322917,-1.32291 0.79375,0 1.322916,0.52916 1.322916,1.32291 0,0.79375 -0.529166,1.32292 -1.322916,1.32292 -0.79375,0 -1.322917,-0.52917 -1.322917,-1.32292 z M 50,95.562505 c 0,-0.79375 0.529166,-1.322917 1.322916,-1.322917 0.79375,0 1.322917,0.529167 1.322917,1.322917 0,0.79375 -0.529167,1.322919 -1.322917,1.322919 C 50.529166,96.885424 50,96.356255 50,95.562505 Z m 0,5.291665 c 0,-0.79375 0.529166,-1.322916 1.322916,-1.322916 0.79375,0 1.322917,0.529166 1.322917,1.322916 0,0.79375 -0.529167,1.32291 -1.322917,1.32291 C 50.529166,102.17708 50,101.64792 50,100.85417 Z m 0,5.29166 c 0,-0.79375 0.529166,-1.32291 1.322916,-1.32291 0.79375,0 1.322917,0.52916 1.322917,1.32291 0,0.79375 -0.529167,1.32292 -1.322917,1.32292 C 50.529166,107.46875 50,106.93958 50,106.14583 Z m 26.458332,79.375 c 0,-0.79375 0.529167,-1.32291 1.322917,-1.32291 0.79375,0 1.322916,0.52916 1.322916,1.32291 0,0.79375 -0.529166,1.32292 -1.322916,1.32292 -0.79375,0 -1.322917,-0.52917 -1.322917,-1.32292 z m 0,5.29167 c 0,-0.79375 0.529167,-1.32292 1.322917,-1.32292 0.79375,0 1.322916,0.52917 1.322916,1.32292 0,0.79375 -0.529166,1.32292 -1.322916,1.32292 -0.79375,0 -1.322917,-0.52917 -1.322917,-1.32292 z m 0,5.29167 c 0,-0.79375 0.529167,-1.32292 1.322917,-1.32292 0.79375,0 1.322916,0.52917 1.322916,1.32292 0,0.79375 -0.529166,1.32291 -1.322916,1.32291 -0.79375,0 -1.322917,-0.52916 -1.322917,-1.32291 z M 50,185.52083 c 0,-0.79375 0.529166,-1.32291 1.322916,-1.32291 0.79375,0 1.322917,0.52916 1.322917,1.32291 0,0.79375 -0.529167,1.32292 -1.322917,1.32292 C 50.529166,186.84375 50,186.31458 50,185.52083 Z m 0,5.29167 c 0,-0.79375 0.529166,-1.32292 1.322916,-1.32292 0.79375,0 1.322917,0.52917 1.322917,1.32292 0,0.79375 -0.529167,1.32292 -1.322917,1.32292 C 50.529166,192.13542 50,191.60625 50,190.8125 Z m 0,5.29167 c 0,-0.79375 0.529166,-1.32292 1.322916,-1.32292 0.79375,0 1.322917,0.52917 1.322917,1.32292 0,0.79375 -0.529167,1.32291 -1.322917,1.32291 C 50.529166,197.42708 50,196.89792 50,196.10417 Z m 0,52.91666 v -47.625 c 0,-0.73019 0.592727,-1.32291 1.322916,-1.32291 0.73019,0 1.322917,0.59272 1.322917,1.32291 v 3.96875 h 23.812499 v -3.96875 c 0,-0.73019 0.592728,-1.32291 1.322917,-1.32291 0.730189,0 1.322916,0.59272 1.322916,1.32291 v 47.625 c 0,1.46038 -1.185457,2.64584 -2.645833,2.64584 H 52.645833 C 51.185457,251.66667 50,250.60833 50,249.02083 Z m 2.645833,-68.79166 c 0,0.73019 -0.592727,1.32291 -1.322917,1.32291 C 50.592727,181.55208 50,180.95936 50,180.22917 V 111.4375 c 0,-0.73019 0.592727,-1.32292 1.322916,-1.32292 0.73019,0 1.322917,0.59273 1.322917,1.32292 v 3.96875 h 23.812499 v -3.96875 c 0,-0.73019 0.592728,-1.32292 1.322917,-1.32292 0.730189,0 1.322916,0.59273 1.322916,1.32292 v 68.79167 c 0,0.73019 -0.592727,1.32291 -1.322916,1.32291 -0.730189,0 -1.322917,-0.59272 -1.322917,-1.32291 v -3.96875 H 52.645833 Z m 23.812499,-6.61459 V 161.70833 H 52.645833 v 11.90625 z m 0,-14.55208 V 147.15625 H 52.645833 v 11.90625 z m 0,-14.55208 V 132.60417 H 52.645833 v 11.90625 z m 0,-14.55208 V 118.05208 H 52.645833 v 11.90626 z m 0,119.06249 V 237.11458 H 52.645833 v 11.90625 z m 0,-14.55208 V 222.5625 H 52.645833 v 11.90625 z m 0,-14.55208 V 208.01042 H 52.645833 v 11.90625 z M 79.104165,90.270838 c 0,0.730189 -0.592727,1.322917 -1.322916,1.322917 -0.730189,0 -1.322917,-0.592728 -1.322917,-1.322917 v -3.96875 H 52.645833 v 3.96875 c 0,0.730189 -0.592727,1.322917 -1.322917,1.322917 C 50.592727,91.593755 50,91.001027 50,90.270838 V 42.645839 c 0,-1.5875 1.185457,-2.645834 2.645833,-2.645834 h 23.812499 c 1.460376,0 2.645833,1.185458 2.645833,2.645834 z M 76.458332,83.656255 V 71.750005 H 52.645833 v 11.90625 z m 0,-14.552083 V 57.197922 H 52.645833 v 11.90625 z m 0,-14.552084 V 42.645839 H 52.645833 v 11.906249 z"
       id="path1"
       style="stroke-width:0.264583" /><text
       xml:space="preserve"
       style="font-size:8.46667px;font-family:Consolas;-inkscape-font-specification:Consolas;fill:#000000;stroke:#000000;stroke-width:0.529167"
       x="62.224232"
       y="245.77606"
       id="text1"><tspan
         sodipodi:role="line"
         style="stroke-width:0.529167"
         x="62.224232"
         y="245.77606"
         id="tspan2">0</tspan></text><text
       xml:space="preserve"
       style="font-size:8.46667px;font-family:Consolas;-inkscape-font-specification:Consolas;fill:#000000;stroke:#000000;stroke-width:0.529167"
       x="62.235214"
       y="231.24231"
       id="text3"><tspan
         sodipodi:role="line"
         id="tspan3"
         style="stroke-width:0.529167"
         x="62.235214"
         y="231.24231">1</tspan></text><text
       xml:space="preserve"
       style="font-size:8.46667px;font-family:Consolas;-inkscape-font-specification:Consolas;fill:#000000;stroke:#000000;stroke-width:0.529167"
       x="62.164417"
       y="216.70264"
       id="text4"><tspan
         sodipodi:role="line"
         id="tspan4"
         style="stroke-width:0.529167"
         x="62.164417"
         y="216.70264">2</tspan></text><text
       xml:space="preserve"
       style="font-size:8.46667px;font-family:Consolas;-inkscape-font-specification:Consolas;fill:#000000;stroke:#000000;stroke-width:0.529167"
       x="52.818352"
       y="141.26436"
       id="text5"><tspan
         sodipodi:role="line"
         id="tspan5"
         style="stroke-width:0.529167"
         x="52.818352"
         y="141.26436">32768</tspan></text><text
       xml:space="preserve"
       style="font-size:8.46667px;font-family:Consolas;-inkscape-font-specification:Consolas;fill:#000000;stroke:#000000;stroke-width:0.529167"
       x="52.832821"
       y="126.69575"
       id="text6"><tspan
         sodipodi:role="line"
         id="tspan6"
         style="stroke-width:0.529167"
         x="52.832821"
         y="126.69575">32769</tspan></text><text
       xml:space="preserve"
       style="font-size:8.46667px;font-family:Consolas;-inkscape-font-specification:Consolas;fill:#000000;stroke:#000000;stroke-width:0.529167"
       x="52.832825"
       y="155.7997"
       id="text7"><tspan
         sodipodi:role="line"
         id="tspan7"
         style="stroke-width:0.529167"
         x="52.832825"
         y="155.7997">32767</tspan><tspan
         sodipodi:role="line"
         style="stroke-width:0.529167"
         x="52.832825"
         y="166.38304"
         id="tspan8" /></text><text
       xml:space="preserve"
       style="font-size:8.46667px;font-family:Consolas;-inkscape-font-specification:Consolas;fill:#000000;stroke:#000000;stroke-width:0.529167"
       x="52.78474"
       y="170.3678"
       id="text9"><tspan
         sodipodi:role="line"
         id="tspan9"
         style="stroke-width:0.529167"
         x="52.78474"
         y="170.3678">32766</tspan></text><text
       xml:space="preserve"
       style="font-size:8.46667px;font-family:Consolas;-inkscape-font-specification:Consolas;fill:#000000;stroke:#000000;stroke-width:0.529167"
       x="52.970791"
       y="51.301117"
       id="text10"><tspan
         sodipodi:role="line"
         id="tspan10"
         style="stroke-width:0.529167"
         x="52.970791"
         y="51.301117">65535</tspan></text><text
       xml:space="preserve"
       style="font-size:8.46667px;font-family:Consolas;-inkscape-font-specification:Consolas;fill:#000000;stroke:#000000;stroke-width:0.529167"
       x="52.771141"
       y="65.852402"
       id="text11"><tspan
         sodipodi:role="line"
         id="tspan11"
         style="stroke-width:0.529167"
         x="52.771141"
         y="65.852402">65534</tspan></text><text
       xml:space="preserve"
       style="font-size:8.46667px;font-family:Consolas;-inkscape-font-specification:Consolas;fill:#000000;stroke:#000000;stroke-width:0.529167"
       x="85.686607"
       y="66.650337"
       id="text12"><tspan
         sodipodi:role="line"
         id="tspan12"
         style="stroke-width:0.529167"
         x="85.686607"
         y="66.650337" /></text><text
       xml:space="preserve"
       style="font-size:8.46667px;font-family:Consolas;-inkscape-font-specification:Consolas;fill:#000000;stroke:#000000;stroke-width:0.529167"
       x="52.957199"
       y="80.401367"
       id="text13"><tspan
         sodipodi:role="line"
         style="stroke-width:0.529167"
         x="52.957199"
         y="80.401367"
         id="tspan14">65533</tspan></text><text
       xml:space="preserve"
       style="font-size:8.46667px;font-family:Consolas;-inkscape-font-specification:Consolas;fill:#000000;stroke:#000000;stroke-width:0.529167"
       x="120.18434"
       y="95.646873"
       id="text15"><tspan
         sodipodi:role="line"
         style="stroke-width:0.529167"
         x="120.18434"
         y="95.646873"
         id="tspan17">Heap Memory</tspan><tspan
         sodipodi:role="line"
         style="stroke-width:0.529167"
         x="120.18434"
         y="106.23021"
         id="tspan16">(Dynamically </tspan><tspan
         sodipodi:role="line"
         style="stroke-width:0.529167"
         x="120.18434"
         y="116.81355"
         id="tspan21"> Allocated)</tspan><tspan
         sodipodi:role="line"
         style="stroke-width:0.529167"
         x="120.18434"
         y="127.39689"
         id="tspan18">(2^15 -&gt; 2^16-1)</tspan></text><text
       xml:space="preserve"
       style="font-size:8.46667px;font-family:Consolas;-inkscape-font-specification:Consolas;fill:#000000;stroke:#000000;stroke-width:0.529167"
       x="120.18478"
       y="201.48895"
       id="text19"><tspan
         sodipodi:role="line"
         id="tspan19"
         style="stroke-width:0.529167"
         x="120.18478"
         y="201.48895">Normal Memory</tspan><tspan
         sodipodi:role="line"
         style="stroke-width:0.529167"
         x="120.18478"
         y="212.0723"
         id="tspan20">(Statically</tspan><tspan
         sodipodi:role="line"
         style="stroke-width:0.529167"
         x="120.18478"
         y="222.65562"
         id="tspan22"> Allocated)</tspan><tspan
         sodipodi:role="line"
         style="stroke-width:0.529167"
         x="120.18478"
         y="233.23897"
         id="tspan23">(0 -&gt; 2^15-1)</tspan></text></g></svg>
