<?xml version="1.0" standalone="no"?>
<!DOCTYPE svg PUBLIC "-//W3C//DTD SVG 1.1//EN" "http://www.w3.org/Graphics/SVG/1.1/DTD/svg11.dtd" >
<svg xmlns="http://www.w3.org/2000/svg" xmlns:xlink="http://www.w3.org/1999/xlink" version="1.1" viewBox="-10 0 1010 1000">
   <path fill="currentColor"
d="M200 210c0 -3 2 -5 5 -5s5 2 5 5s-2 5 -5 5s-5 -2 -5 -5zM200 230c0 -3 2 -5 5 -5s5 2 5 5s-2 5 -5 5s-5 -2 -5 -5zM200 250c0 -3 2 -5 5 -5s5 2 5 5s-2 5 -5 5s-5 -2 -5 -5zM100 210c0 -3 2 -5 5 -5s5 2 5 5s-2 5 -5 5s-5 -2 -5 -5zM100 230c0 -3 2 -5 5 -5s5 2 5 5
s-2 5 -5 5s-5 -2 -5 -5zM100 250c0 -3 2 -5 5 -5s5 2 5 5s-2 5 -5 5s-5 -2 -5 -5zM200 550c0 -3 2 -5 5 -5s5 2 5 5s-2 5 -5 5s-5 -2 -5 -5zM200 570c0 -3 2 -5 5 -5s5 2 5 5s-2 5 -5 5s-5 -2 -5 -5zM200 590c0 -3 2 -5 5 -5s5 2 5 5s-2 5 -5 5s-5 -2 -5 -5zM100 550
c0 -3 2 -5 5 -5s5 2 5 5s-2 5 -5 5s-5 -2 -5 -5zM100 570c0 -3 2 -5 5 -5s5 2 5 5s-2 5 -5 5s-5 -2 -5 -5zM100 590c0 -3 2 -5 5 -5s5 2 5 5s-2 5 -5 5s-5 -2 -5 -5zM100 790v-180c0 -2.75977 2.24023 -5 5 -5s5 2.24023 5 5v15h90v-15c0 -2.75977 2.24023 -5 5 -5
s5 2.24023 5 5v180c0 5.51953 -4.48047 10 -10 10h-90c-5.51953 0 -10 -4 -10 -10zM110 530c0 2.75977 -2.24023 5 -5 5s-5 -2.24023 -5 -5v-260c0 -2.75977 2.24023 -5 5 -5s5 2.24023 5 5v15h90v-15c0 -2.75977 2.24023 -5 5 -5s5 2.24023 5 5v260
c0 2.75977 -2.24023 5 -5 5s-5 -2.24023 -5 -5v-15h-90v15zM200 505v-45h-90v45h90zM200 450v-45h-90v45h90zM200 395v-45h-90v45h90zM200 340v-45h-90v45h90zM200 790v-45h-90v45h90zM200 735v-45h-90v45h90zM200 680v-45h-90v45h90zM210 190c0 2.75977 -2.24023 5 -5 5
s-5 -2.24023 -5 -5v-15h-90v15c0 2.75977 -2.24023 5 -5 5s-5 -2.24023 -5 -5v-180c0 -6 4.48047 -10 10 -10h90c5.51953 0 10 4.48047 10 10v180zM200 165v-45h-90v45h90zM200 110v-45h-90v45h90zM200 55v-45h-90v45h90z" />
</svg>
