<?xml version="1.0" encoding="UTF-8" standalone="no"?>
<!-- Created with Inkscape (http://www.inkscape.org/) -->

<svg
   width="210mm"
   height="297mm"
   viewBox="0 0 210 297"
   version="1.1"
   id="svg1"
   xml:space="preserve"
   inkscape:version="1.3.2 (091e20ef0f, 2023-11-25)"
   sodipodi:docname="stack.svg"
   xmlns:inkscape="http://www.inkscape.org/namespaces/inkscape"
   xmlns:sodipodi="http://sodipodi.sourceforge.net/DTD/sodipodi-0.dtd"
   xmlns="http://www.w3.org/2000/svg"
   xmlns:svg="http://www.w3.org/2000/svg"><sodipodi:namedview
     id="namedview1"
     pagecolor="#ffffff"
     bordercolor="#000000"
     borderopacity="0.25"
     inkscape:showpageshadow="2"
     inkscape:pageopacity="0.0"
     inkscape:pagecheckerboard="0"
     inkscape:deskcolor="#d1d1d1"
     inkscape:document-units="mm"
     inkscape:zoom="0.70710678"
     inkscape:cx="237.58788"
     inkscape:cy="497.09606"
     inkscape:window-width="2560"
     inkscape:window-height="1377"
     inkscape:window-x="-8"
     inkscape:window-y="-8"
     inkscape:window-maximized="1"
     inkscape:current-layer="layer1" /><defs
     id="defs1" /><g
     inkscape:label="Layer 1"
     inkscape:groupmode="layer"
     id="layer1"><path
       fill="currentColor"
       d="m 118.96326,139.7781 -10.47244,-10.73972 v 83.41188 c 0,1.97595 -1.56404,3.57989 -3.49081,3.57989 -1.92676,0 -3.49082,-1.60394 -3.49082,-3.57989 V 129.03838 L 91.036756,139.7781 c -2.443569,2.50596 -5.236217,0 -5.236217,0 0,0 -2.792652,-2.50592 0,-5.36985 l 19.199471,-19.6895 19.19947,19.6895 c 2.44357,2.50594 0,5.36985 0,5.36985 0,0 -2.44357,2.86393 -5.23622,0 z m 69.81626,-66.944281 c 0,-1.073973 0.69815,-1.789956 1.7454,-1.789956 1.04724,0 1.74539,0.715983 1.74539,1.789956 0,1.073971 -0.69815,1.789953 -1.74539,1.789953 -1.04725,0 -1.7454,-0.715982 -1.7454,-1.789953 z m 0,7.159816 c 0,-1.073971 0.69815,-1.789954 1.7454,-1.789954 1.04724,0 1.74539,0.715983 1.74539,1.789954 0,1.073973 -0.69815,1.789954 -1.74539,1.789954 -1.04725,0 -1.7454,-0.715981 -1.7454,-1.789954 z m 0,7.159816 c 0,-1.073972 0.69815,-1.789953 1.7454,-1.789953 1.04724,0 1.74539,0.715981 1.74539,1.789953 0,1.073972 -0.69815,1.789962 -1.74539,1.789962 -1.04725,0 -1.7454,-0.71599 -1.7454,-1.789962 z m -52.3622,-14.319632 c 0,-1.073973 0.69817,-1.789956 1.74541,-1.789956 1.04725,0 1.7454,0.715983 1.7454,1.789956 0,1.073971 -0.69815,1.789953 -1.7454,1.789953 -1.04724,0 -1.74541,-0.715982 -1.74541,-1.789953 z m 0,7.159816 c 0,-1.073971 0.69817,-1.789954 1.74541,-1.789954 1.04725,0 1.7454,0.715983 1.7454,1.789954 0,1.073973 -0.69815,1.789954 -1.7454,1.789954 -1.04724,0 -1.74541,-0.715981 -1.74541,-1.789954 z m 0,7.159816 c 0,-1.073972 0.69817,-1.789953 1.74541,-1.789953 1.04725,0 1.7454,0.715981 1.7454,1.789953 0,1.073972 -0.69815,1.789962 -1.7454,1.789962 -1.04724,0 -1.74541,-0.71599 -1.74541,-1.789962 z m 52.3622,107.397259 c 0,-1.07398 0.69815,-1.78995 1.7454,-1.78995 1.04724,0 1.74539,0.71597 1.74539,1.78995 0,1.07397 -0.69815,1.78996 -1.74539,1.78996 -1.04725,0 -1.7454,-0.71599 -1.7454,-1.78996 z m 0,7.15982 c 0,-1.07398 0.69815,-1.78996 1.7454,-1.78996 1.04724,0 1.74539,0.71598 1.74539,1.78996 0,1.07396 -0.69815,1.78995 -1.74539,1.78995 -1.04725,0 -1.7454,-0.71599 -1.7454,-1.78995 z m 0,7.15982 c 0,-1.07398 0.69815,-1.78996 1.7454,-1.78996 1.04724,0 1.74539,0.71598 1.74539,1.78996 0,1.07396 -0.69815,1.78994 -1.74539,1.78994 -1.04725,0 -1.7454,-0.71598 -1.7454,-1.78994 z m -52.3622,-14.31964 c 0,-1.07398 0.69817,-1.78995 1.74541,-1.78995 1.04725,0 1.7454,0.71597 1.7454,1.78995 0,1.07397 -0.69815,1.78996 -1.7454,1.78996 -1.04724,0 -1.74541,-0.71599 -1.74541,-1.78996 z m 0,7.15982 c 0,-1.07398 0.69817,-1.78996 1.74541,-1.78996 1.04725,0 1.7454,0.71598 1.7454,1.78996 0,1.07396 -0.69815,1.78995 -1.7454,1.78995 -1.04724,0 -1.74541,-0.71599 -1.74541,-1.78995 z m 0,7.15982 c 0,-1.07398 0.69817,-1.78996 1.74541,-1.78996 1.04725,0 1.7454,0.71598 1.7454,1.78996 0,1.07396 -0.69815,1.78994 -1.7454,1.78994 -1.04724,0 -1.74541,-0.71598 -1.74541,-1.78994 z m 0,71.59815 v -64.43835 c 0,-0.98797 0.78203,-1.78993 1.74541,-1.78993 0.96339,0 1.7454,0.80196 1.7454,1.78993 v 5.36988 h 48.87139 v -5.36988 c 0,-0.98797 0.78201,-1.78993 1.7454,-1.78993 0.96338,0 1.74539,0.80196 1.74539,1.78993 v 64.43835 c 0,1.97595 -1.56403,3.57992 -3.49079,3.57992 h -48.87139 c -1.92675,0 -3.49081,-1.43197 -3.49081,-3.57992 z m 3.49081,-93.07761 c 0,0.98798 -0.78201,1.78995 -1.7454,1.78995 -0.96338,0 -1.74541,-0.80197 -1.74541,-1.78995 V 94.313275 c 0,-0.987975 0.78203,-1.78996 1.74541,-1.78996 0.96339,0 1.7454,0.801985 1.7454,1.78996 v 5.369862 h 48.87139 v -5.369862 c 0,-0.987975 0.78201,-1.78996 1.7454,-1.78996 0.96338,0 1.74539,0.801985 1.74539,1.78996 v 93.077615 c 0,0.98798 -0.78201,1.78995 -1.74539,1.78995 -0.96339,0 -1.7454,-0.80197 -1.7454,-1.78995 v -5.36986 h -48.87139 z m 48.87139,-8.94978 v -16.10958 h -48.87139 v 16.10958 z m 0,-19.68948 v -16.1096 h -48.87139 v 16.1096 z m 0,-19.6895 v -16.10961 h -48.87139 v 16.10961 z m 0,-19.6895 v -16.1096 h -48.87139 v 16.1096 z m 0,161.09587 v -16.10959 h -48.87139 v 16.10959 z m 0,-19.68948 v -16.1096 h -48.87139 v 16.1096 z m 0,-19.68949 v -16.10961 h -48.87139 v 16.10961 z M 70.091882,72.833819 c 0,-1.073973 0.698161,-1.789956 1.745406,-1.789956 1.047242,0 1.745406,0.715983 1.745406,1.789956 0,1.073971 -0.698164,1.789953 -1.745406,1.789953 -1.047245,0 -1.745406,-0.715982 -1.745406,-1.789953 z m 0,7.159816 c 0,-1.073971 0.698161,-1.789954 1.745406,-1.789954 1.047242,0 1.745406,0.715983 1.745406,1.789954 0,1.073973 -0.698164,1.789954 -1.745406,1.789954 -1.047245,0 -1.745406,-0.715981 -1.745406,-1.789954 z m 0,7.159816 c 0,-1.073972 0.698161,-1.789953 1.745406,-1.789953 1.047242,0 1.745406,0.715981 1.745406,1.789953 0,1.073972 -0.698164,1.789962 -1.745406,1.789962 -1.047245,0 -1.745406,-0.71599 -1.745406,-1.789962 z M 17.729695,72.833819 c 0,-1.073973 0.698162,-1.789956 1.745407,-1.789956 1.047242,0 1.745406,0.715983 1.745406,1.789956 0,1.073971 -0.698164,1.789953 -1.745406,1.789953 -1.047245,0 -1.745407,-0.715982 -1.745407,-1.789953 z m 0,7.159816 c 0,-1.073971 0.698162,-1.789954 1.745407,-1.789954 1.047242,0 1.745406,0.715983 1.745406,1.789954 0,1.073973 -0.698164,1.789954 -1.745406,1.789954 -1.047245,0 -1.745407,-0.715981 -1.745407,-1.789954 z m 0,7.159816 c 0,-1.073972 0.698162,-1.789953 1.745407,-1.789953 1.047242,0 1.745406,0.715981 1.745406,1.789953 0,1.073972 -0.698164,1.789962 -1.745406,1.789962 -1.047245,0 -1.745407,-0.71599 -1.745407,-1.789962 z M 70.091882,194.55071 c 0,-1.07398 0.698161,-1.78995 1.745406,-1.78995 1.047242,0 1.745406,0.71597 1.745406,1.78995 0,1.07397 -0.698164,1.78996 -1.745406,1.78996 -1.047245,0 -1.745406,-0.71599 -1.745406,-1.78996 z m 0,7.15982 c 0,-1.07398 0.698161,-1.78996 1.745406,-1.78996 1.047242,0 1.745406,0.71598 1.745406,1.78996 0,1.07396 -0.698164,1.78995 -1.745406,1.78995 -1.047245,0 -1.745406,-0.71599 -1.745406,-1.78995 z m 0,7.15982 c 0,-1.07398 0.698161,-1.78996 1.745406,-1.78996 1.047242,0 1.745406,0.71598 1.745406,1.78996 0,1.07396 -0.698164,1.78994 -1.745406,1.78994 -1.047245,0 -1.745406,-0.71598 -1.745406,-1.78994 z M 17.729695,194.55071 c 0,-1.07398 0.698162,-1.78995 1.745407,-1.78995 1.047242,0 1.745406,0.71597 1.745406,1.78995 0,1.07397 -0.698164,1.78996 -1.745406,1.78996 -1.047245,0 -1.745407,-0.71599 -1.745407,-1.78996 z m 0,7.15982 c 0,-1.07398 0.698162,-1.78996 1.745407,-1.78996 1.047242,0 1.745406,0.71598 1.745406,1.78996 0,1.07396 -0.698164,1.78995 -1.745406,1.78995 -1.047245,0 -1.745407,-0.71599 -1.745407,-1.78995 z m 0,7.15982 c 0,-1.07398 0.698162,-1.78996 1.745407,-1.78996 1.047242,0 1.745406,0.71598 1.745406,1.78996 0,1.07396 -0.698164,1.78994 -1.745406,1.78994 -1.047245,0 -1.745407,-0.71598 -1.745407,-1.78994 z m 0,71.59815 v -64.43835 c 0,-0.98797 0.782022,-1.78993 1.745407,-1.78993 0.963385,0 1.745406,0.80196 1.745406,1.78993 v 5.36988 h 48.871374 v -5.36988 c 0,-0.98797 0.782022,-1.78993 1.745406,-1.78993 0.963385,0 1.745406,0.80196 1.745406,1.78993 v 64.43835 c 0,1.97595 -1.564047,3.57992 -3.490812,3.57992 H 21.220508 c -1.926765,0 -3.490813,-1.43197 -3.490813,-3.57992 z m 3.490813,-93.07761 c 0,0.98798 -0.782021,1.78995 -1.745406,1.78995 -0.963385,0 -1.745407,-0.80197 -1.745407,-1.78995 V 94.313275 c 0,-0.987975 0.782022,-1.78996 1.745407,-1.78996 0.963385,0 1.745406,0.801985 1.745406,1.78996 v 5.369862 h 48.871374 v -5.369862 c 0,-0.987975 0.782022,-1.78996 1.745406,-1.78996 0.963385,0 1.745406,0.801985 1.745406,1.78996 v 93.077615 c 0,0.98798 -0.782021,1.78995 -1.745406,1.78995 -0.963384,0 -1.745406,-0.80197 -1.745406,-1.78995 v -5.36986 H 21.220508 Z m 48.871374,-8.94978 V 162.33153 H 21.220508 v 16.10958 z m 0,-19.68948 v -16.1096 H 21.220508 v 16.1096 z m 0,-19.6895 V 122.95252 H 21.220508 v 16.10961 z m 0,-19.6895 v -16.1096 H 21.220508 v 16.1096 z m 0,161.09587 V 264.35891 H 21.220508 v 16.10959 z m 0,-19.68948 v -16.1096 H 21.220508 v 16.1096 z m 0,-19.68949 V 224.97992 H 21.220508 v 16.10961 z"
       id="path1"
       style="stroke-width:0.264583" /><text
       xml:space="preserve"
       style="font-size:12.7px;font-family:Consolas;-inkscape-font-specification:Consolas;fill:#000000;stroke:#000000;stroke-width:0.529167"
       x="17.715611"
       y="45.01524"
       id="text2"><tspan
         sodipodi:role="line"
         id="tspan2"
         style="font-size:12.7px;stroke-width:0.529167"
         x="17.715611"
         y="45.01524">Post-Call</tspan></text><text
       xml:space="preserve"
       style="font-size:12.7px;font-family:Consolas;-inkscape-font-specification:Consolas;fill:#000000;stroke:#000000;stroke-width:0.529167"
       x="132.4518"
       y="43.254871"
       id="text3"><tspan
         sodipodi:role="line"
         id="tspan3"
         style="font-size:12.7px;stroke-width:0.529167"
         x="132.4518"
         y="43.254871">Pre-Return</tspan></text><text
       xml:space="preserve"
       style="font-size:16.9333px;font-family:Consolas;-inkscape-font-specification:Consolas;fill:#000000;stroke:#000000;stroke-width:0.529167"
       x="100.34499"
       y="245.44624"
       id="text4"><tspan
         sodipodi:role="line"
         id="tspan4"
         style="font-size:16.9333px;stroke-width:0.529167"
         x="100.34499"
         y="245.44624">0</tspan></text><text
       xml:space="preserve"
       style="font-size:12.7px;font-family:Consolas;-inkscape-font-specification:Consolas;fill:#000000;stroke:#000000;stroke-width:0.529167"
       x="83.996628"
       y="107.38272"
       id="text5"><tspan
         sodipodi:role="line"
         id="tspan5"
         style="stroke-width:0.529167"
         x="83.996628"
         y="107.38272">2^16-1</tspan></text><text
       xml:space="preserve"
       style="font-size:7.24071px;font-family:Consolas;-inkscape-font-specification:Consolas;fill:#000000;stroke:#000000;stroke-width:0.529167"
       x="31.731867"
       y="109.77191"
       id="text6"
       transform="scale(1.0060344,0.99400179)"><tspan
         sodipodi:role="line"
         id="tspan6"
         style="font-size:7.24071px;stroke-width:0.529167"
         x="31.731867"
         y="109.77191">Return </tspan><tspan
         sodipodi:role="line"
         style="font-size:7.24071px;stroke-width:0.529167"
         x="31.731867"
         y="118.8228"
         id="tspan7">Address</tspan></text><text
       xml:space="preserve"
       style="font-size:7.24071px;font-family:Consolas;-inkscape-font-specification:Consolas;fill:#000000;stroke:#000000;stroke-width:0.529167"
       x="149.70786"
       y="109.77077"
       id="text6-6"
       transform="scale(1.0060344,0.99400179)"><tspan
         sodipodi:role="line"
         id="tspan6-9"
         style="font-size:7.24071px;stroke-width:0.529167"
         x="149.70786"
         y="109.77077">Return </tspan><tspan
         sodipodi:role="line"
         style="font-size:7.24071px;stroke-width:0.529167"
         x="149.70786"
         y="118.82166"
         id="tspan7-2">Address</tspan></text><text
       xml:space="preserve"
       style="font-size:8.46667px;font-family:Consolas;-inkscape-font-specification:Consolas;fill:#000000;stroke:#000000;stroke-width:0.529167"
       x="24.565243"
       y="133.7099"
       id="text8"><tspan
         sodipodi:role="line"
         id="tspan8"
         style="stroke-width:0.529167"
         x="24.565243"
         y="133.7099">Param n-0</tspan></text><text
       xml:space="preserve"
       style="font-size:8.46667px;font-family:Consolas;-inkscape-font-specification:Consolas;fill:#000000;stroke:#000000;stroke-width:0.529167"
       x="24.649994"
       y="153.37177"
       id="text8-3"><tspan
         sodipodi:role="line"
         id="tspan8-4"
         style="stroke-width:0.529167"
         x="24.649994"
         y="153.37177">Param n-1</tspan><tspan
         sodipodi:role="line"
         style="stroke-width:0.529167"
         x="24.649994"
         y="163.95511"
         id="tspan9" /></text><text
       xml:space="preserve"
       style="font-size:8.46667px;font-family:Consolas;-inkscape-font-specification:Consolas;fill:#000000;stroke:#000000;stroke-width:0.529167"
       x="24.624153"
       y="173.08501"
       id="text8-3-5"><tspan
         sodipodi:role="line"
         id="tspan8-4-7"
         style="stroke-width:0.529167"
         x="24.624153"
         y="173.08501">Param n-2</tspan><tspan
         sodipodi:role="line"
         style="stroke-width:0.529167"
         x="24.624153"
         y="183.66835"
         id="tspan11" /><tspan
         sodipodi:role="line"
         style="stroke-width:0.529167"
         x="24.624153"
         y="194.25168"
         id="tspan9-0" /></text><text
       xml:space="preserve"
       style="font-size:8.46667px;font-family:Consolas;-inkscape-font-specification:Consolas;fill:#000000;stroke:#000000;stroke-width:0.529167"
       x="147.90472"
       y="133.70636"
       id="text12"><tspan
         sodipodi:role="line"
         id="tspan12"
         style="stroke-width:0.529167"
         x="147.90472"
         y="133.70636">Param 0</tspan></text><text
       xml:space="preserve"
       style="font-size:8.46667px;font-family:Consolas;-inkscape-font-specification:Consolas;fill:#000000;stroke:#000000;stroke-width:0.529167"
       x="147.98988"
       y="153.37181"
       id="text12-9"><tspan
         sodipodi:role="line"
         id="tspan12-8"
         style="stroke-width:0.529167"
         x="147.98988"
         y="153.37181">Param 1</tspan></text><text
       xml:space="preserve"
       style="font-size:8.46667px;font-family:Consolas;-inkscape-font-specification:Consolas;fill:#000000;stroke:#000000;stroke-width:0.529167"
       x="147.96735"
       y="173.08594"
       id="text12-9-0"><tspan
         sodipodi:role="line"
         id="tspan12-8-4"
         style="stroke-width:0.529167"
         x="147.96735"
         y="173.08594">Param 2</tspan></text><text
       xml:space="preserve"
       style="font-size:8.46667px;font-family:Consolas;-inkscape-font-specification:Consolas;fill:#000000;stroke:#000000;stroke-width:0.529167"
       x="163.5125"
       y="135.46666"
       id="text13"><tspan
         sodipodi:role="line"
         id="tspan13"
         style="stroke-width:0.529167"
         x="163.5125"
         y="135.46666" /></text></g></svg>
