<?xml version="1.0" encoding="UTF-8" standalone="no"?>
<!-- Created with Inkscape (http://www.inkscape.org/) -->

<svg
   width="210mm"
   height="297mm"
   viewBox="0 0 210 297"
   version="1.1"
   id="svg1"
   xml:space="preserve"
   inkscape:version="1.3.2 (091e20ef0f, 2023-11-25)"
   sodipodi:docname="stack.svg"
   xmlns:inkscape="http://www.inkscape.org/namespaces/inkscape"
   xmlns:sodipodi="http://sodipodi.sourceforge.net/DTD/sodipodi-0.dtd"
   xmlns="http://www.w3.org/2000/svg"
   xmlns:svg="http://www.w3.org/2000/svg"><sodipodi:namedview
     id="namedview1"
     pagecolor="#ffffff"
     bordercolor="#000000"
     borderopacity="0.25"
     inkscape:showpageshadow="2"
     inkscape:pageopacity="0.0"
     inkscape:pagecheckerboard="0"
     inkscape:deskcolor="#d1d1d1"
     inkscape:document-units="mm"
     inkscape:zoom="0.5"
     inkscape:cx="248"
     inkscape:cy="159"
     inkscape:window-width="2560"
     inkscape:window-height="1377"
     inkscape:window-x="-8"
     inkscape:window-y="-8"
     inkscape:window-maximized="1"
     inkscape:current-layer="layer1"
     showgrid="false" /><defs
     id="defs1" /><g
     inkscape:label="Layer 1"
     inkscape:groupmode="layer"
     id="layer1"><text
       xml:space="preserve"
       style="font-size:12.7px;font-family:Consolas;-inkscape-font-specification:Consolas;fill:#000000;stroke:#000000;stroke-width:0.529167"
       x="17.715611"
       y="44.891243"
       id="text2"><tspan
         sodipodi:role="line"
         id="tspan2"
         style="font-size:12.7px;stroke-width:0.529167"
         x="17.715611"
         y="44.891243">Post-Call</tspan></text><text
       xml:space="preserve"
       style="font-size:12.7px;font-family:Consolas;-inkscape-font-specification:Consolas;fill:#000000;stroke:#000000;stroke-width:0.529167"
       x="132.4518"
       y="44.891994"
       id="text3"><tspan
         sodipodi:role="line"
         id="tspan3"
         style="font-size:12.7px;stroke-width:0.529167"
         x="132.4518"
         y="44.891994">Pre-Return</tspan></text><text
       xml:space="preserve"
       style="font-size:16.9333px;font-family:Consolas;-inkscape-font-specification:Consolas;fill:#000000;stroke:#000000;stroke-width:0.529167"
       x="100.34499"
       y="234.22092"
       id="text4"><tspan
         sodipodi:role="line"
         id="tspan4"
         style="font-size:16.9333px;stroke-width:0.529167"
         x="100.34499"
         y="234.22092">0</tspan></text><text
       xml:space="preserve"
       style="font-size:12.7px;font-family:Consolas;-inkscape-font-specification:Consolas;fill:#000000;stroke:#000000;stroke-width:0.529167"
       x="83.996628"
       y="130.20753"
       id="text5"><tspan
         sodipodi:role="line"
         id="tspan5"
         style="stroke-width:0.529167"
         x="83.996628"
         y="130.20753">2^16-1</tspan></text><text
       xml:space="preserve"
       style="font-size:7.24071px;font-family:Consolas;-inkscape-font-specification:Consolas;fill:#000000;stroke:#000000;stroke-width:0.529167"
       x="33.453598"
       y="109.83166"
       id="text6"
       transform="scale(1.0060344,0.99400179)"><tspan
         sodipodi:role="line"
         id="tspan6"
         style="font-size:7.24071px;stroke-width:0.529167"
         x="33.453598"
         y="109.83166">Return </tspan><tspan
         sodipodi:role="line"
         style="font-size:7.24071px;stroke-width:0.529167"
         x="33.453598"
         y="118.88255"
         id="tspan7">Address</tspan></text><text
       xml:space="preserve"
       style="font-size:7.24071px;font-family:Consolas;-inkscape-font-specification:Consolas;fill:#000000;stroke:#000000;stroke-width:0.529167"
       x="147.99055"
       y="109.83167"
       id="text6-6"
       transform="scale(1.0060344,0.99400179)"><tspan
         sodipodi:role="line"
         id="tspan6-9"
         style="font-size:7.24071px;stroke-width:0.529167"
         x="147.99055"
         y="109.83167">Return </tspan><tspan
         sodipodi:role="line"
         style="font-size:7.24071px;stroke-width:0.529167"
         x="147.99055"
         y="118.88255"
         id="tspan7-2">Address</tspan></text><text
       xml:space="preserve"
       style="font-size:8.46667px;font-family:Consolas;-inkscape-font-specification:Consolas;fill:#000000;stroke:#000000;stroke-width:0.529167"
       x="26.29438"
       y="133.37204"
       id="text8"><tspan
         sodipodi:role="line"
         id="tspan8"
         style="stroke-width:0.529167"
         x="26.29438"
         y="133.37204">Param n-0</tspan></text><text
       xml:space="preserve"
       style="font-size:8.46667px;font-family:Consolas;-inkscape-font-specification:Consolas;fill:#000000;stroke:#000000;stroke-width:0.529167"
       x="26.379131"
       y="152.6434"
       id="text8-3"><tspan
         sodipodi:role="line"
         id="tspan8-4"
         style="stroke-width:0.529167"
         x="26.379131"
         y="152.6434">Param n-1</tspan><tspan
         sodipodi:role="line"
         style="stroke-width:0.529167"
         x="26.379131"
         y="163.22675"
         id="tspan9" /></text><text
       xml:space="preserve"
       style="font-size:8.46667px;font-family:Consolas;-inkscape-font-specification:Consolas;fill:#000000;stroke:#000000;stroke-width:0.529167"
       x="26.355888"
       y="171.96564"
       id="text8-3-5"><tspan
         sodipodi:role="line"
         id="tspan8-4-7"
         style="stroke-width:0.529167"
         x="26.355888"
         y="171.96564">Param n-2</tspan><tspan
         sodipodi:role="line"
         style="stroke-width:0.529167"
         x="26.355888"
         y="182.54898"
         id="tspan11" /><tspan
         sodipodi:role="line"
         style="stroke-width:0.529167"
         x="26.355888"
         y="193.13231"
         id="tspan9-0" /></text><text
       xml:space="preserve"
       style="font-size:8.46667px;font-family:Consolas;-inkscape-font-specification:Consolas;fill:#000000;stroke:#000000;stroke-width:0.529167"
       x="146.17752"
       y="133.37219"
       id="text12"><tspan
         sodipodi:role="line"
         id="tspan12"
         style="stroke-width:0.529167"
         x="146.17752"
         y="133.37219">Param 0</tspan></text><text
       xml:space="preserve"
       style="font-size:8.46667px;font-family:Consolas;-inkscape-font-specification:Consolas;fill:#000000;stroke:#000000;stroke-width:0.529167"
       x="146.26227"
       y="152.64439"
       id="text12-9"><tspan
         sodipodi:role="line"
         id="tspan12-8"
         style="stroke-width:0.529167"
         x="146.26227"
         y="152.64439">Param 1</tspan></text><text
       xml:space="preserve"
       style="font-size:8.46667px;font-family:Consolas;-inkscape-font-specification:Consolas;fill:#000000;stroke:#000000;stroke-width:0.529167"
       x="146.23953"
       y="171.96518"
       id="text12-9-0"
       inkscape:label="text12-9-0"><tspan
         sodipodi:role="line"
         id="tspan12-8-4"
         style="stroke-width:0.529167"
         x="146.23953"
         y="171.96518">Param 2</tspan></text><text
       xml:space="preserve"
       style="font-size:8.46667px;font-family:Consolas;-inkscape-font-specification:Consolas;fill:#000000;stroke:#000000;stroke-width:0.529167"
       x="163.5125"
       y="135.46666"
       id="text13"
       inkscape:label="text13"><tspan
         sodipodi:role="line"
         id="tspan13"
         style="stroke-width:0.529167"
         x="163.5125"
         y="135.46666" /></text><path
       fill="currentColor"
       d="m 94.832797,142.07329 v 7.01702 c 0,0.96827 -0.759219,1.75425 -1.694526,1.75425 -0.935306,0 -1.694538,-0.78598 -1.694538,-1.75425 v -7.01702 c 0,-1.93654 1.518465,-3.5085 3.389064,-3.5085 h 20.334413 c 1.87061,0 3.38906,1.57196 3.38906,3.5085 v 7.01702 c 0,0.96827 -0.75923,1.75425 -1.69453,1.75425 -0.9353,0 -1.69453,-0.78598 -1.69453,-1.75425 v -7.01702 h -8.47267 v 68.41592 c 0,0.96826 -0.75923,1.75425 -1.69455,1.75425 -0.93529,0 -1.69452,-0.78599 -1.69452,-1.75425 V 142.07329 Z M 186.33764,73.657377 c 0,-1.052553 0.67781,-1.754255 1.69453,-1.754255 1.01673,0 1.69453,0.701702 1.69453,1.754255 0,1.052552 -0.6778,1.754254 -1.69453,1.754254 -1.01672,0 -1.69453,-0.701702 -1.69453,-1.754254 z m 0,7.017017 c 0,-1.052552 0.67781,-1.754254 1.69453,-1.754254 1.01673,0 1.69453,0.701702 1.69453,1.754254 0,1.052552 -0.6778,1.754253 -1.69453,1.754253 -1.01672,0 -1.69453,-0.701701 -1.69453,-1.754253 z m 0,7.017016 c 0,-1.052552 0.67781,-1.754254 1.69453,-1.754254 1.01673,0 1.69453,0.701702 1.69453,1.754254 0,1.052553 -0.6778,1.754255 -1.69453,1.754255 -1.01672,0 -1.69453,-0.701702 -1.69453,-1.754255 z M 135.50162,73.657377 c 0,-1.052553 0.67781,-1.754255 1.69453,-1.754255 1.01672,0 1.69453,0.701702 1.69453,1.754255 0,1.052552 -0.67781,1.754254 -1.69453,1.754254 -1.01672,0 -1.69453,-0.701702 -1.69453,-1.754254 z m 0,7.017017 c 0,-1.052552 0.67781,-1.754254 1.69453,-1.754254 1.01672,0 1.69453,0.701702 1.69453,1.754254 0,1.052552 -0.67781,1.754253 -1.69453,1.754253 -1.01672,0 -1.69453,-0.701701 -1.69453,-1.754253 z m 0,7.017016 c 0,-1.052552 0.67781,-1.754254 1.69453,-1.754254 1.01672,0 1.69453,0.701702 1.69453,1.754254 0,1.052553 -0.67781,1.754255 -1.69453,1.754255 -1.01672,0 -1.69453,-0.701702 -1.69453,-1.754255 z m 50.83602,105.25525 c 0,-1.05255 0.67781,-1.75424 1.69453,-1.75424 1.01673,0 1.69453,0.70169 1.69453,1.75424 0,1.05255 -0.6778,1.75426 -1.69453,1.75426 -1.01672,0 -1.69453,-0.70171 -1.69453,-1.75426 z m 0,7.01702 c 0,-1.05255 0.67781,-1.75426 1.69453,-1.75426 1.01673,0 1.69453,0.70171 1.69453,1.75426 0,1.05255 -0.6778,1.75426 -1.69453,1.75426 -1.01672,0 -1.69453,-0.70171 -1.69453,-1.75426 z m 0,7.01702 c 0,-1.05255 0.67781,-1.75426 1.69453,-1.75426 1.01673,0 1.69453,0.70171 1.69453,1.75426 0,1.05255 -0.6778,1.75425 -1.69453,1.75425 -1.01672,0 -1.69453,-0.7017 -1.69453,-1.75425 z m -50.83602,-14.03404 c 0,-1.05255 0.67781,-1.75424 1.69453,-1.75424 1.01672,0 1.69453,0.70169 1.69453,1.75424 0,1.05255 -0.67781,1.75426 -1.69453,1.75426 -1.01672,0 -1.69453,-0.70171 -1.69453,-1.75426 z m 0,7.01702 c 0,-1.05255 0.67781,-1.75426 1.69453,-1.75426 1.01672,0 1.69453,0.70171 1.69453,1.75426 0,1.05255 -0.67781,1.75426 -1.69453,1.75426 -1.01672,0 -1.69453,-0.70171 -1.69453,-1.75426 z m 0,7.01702 c 0,-1.05255 0.67781,-1.75426 1.69453,-1.75426 1.01672,0 1.69453,0.70171 1.69453,1.75426 0,1.05255 -0.67781,1.75425 -1.69453,1.75425 -1.01672,0 -1.69453,-0.7017 -1.69453,-1.75425 z m 0,70.17016 v -63.15315 c 0,-0.96827 0.75923,-1.75425 1.69453,-1.75425 0.9353,0 1.69453,0.78598 1.69453,1.75425 v 5.26276 h 47.44696 v -5.26276 c 0,-0.96827 0.75923,-1.75425 1.69453,-1.75425 0.93531,0 1.69453,0.78598 1.69453,1.75425 v 63.15315 c 0,1.93654 -1.51846,3.50852 -3.38906,3.50852 h -47.44696 c -1.8706,0 -3.38906,-1.40341 -3.38906,-3.50852 z m 3.38906,-91.22121 c 0,0.96827 -0.75923,1.75425 -1.69453,1.75425 -0.9353,0 -1.69453,-0.78598 -1.69453,-1.75425 V 94.708428 c 0,-0.968269 0.75923,-1.754256 1.69453,-1.754256 0.9353,0 1.69453,0.785987 1.69453,1.754256 v 5.262769 h 47.44696 v -5.262769 c 0,-0.968269 0.75923,-1.754256 1.69453,-1.754256 0.93531,0 1.69453,0.785987 1.69453,1.754256 v 91.221222 c 0,0.96827 -0.75922,1.75425 -1.69453,1.75425 -0.9353,0 -1.69453,-0.78598 -1.69453,-1.75425 v -5.26276 h -47.44696 z m 47.44696,-8.77127 v -15.7883 h -47.44696 v 15.7883 z m 0,-19.2968 v -15.78829 h -47.44696 v 15.78829 z m 0,-19.29679 v -15.7883 h -47.44696 v 15.7883 z m 0,-19.29681 V 103.4797 h -47.44696 v 15.78828 z m 0,157.88288 v -15.78828 h -47.44696 v 15.78828 z m 0,-19.29679 v -15.78829 h -47.44696 v 15.78829 z m 0,-19.29679 v -15.78829 h -47.44696 v 15.78829 z M 71.109326,73.657377 c 0,-1.052553 0.677813,-1.754255 1.694533,-1.754255 1.016721,0 1.694529,0.701702 1.694529,1.754255 0,1.052552 -0.677808,1.754254 -1.694529,1.754254 -1.01672,0 -1.694533,-0.701702 -1.694533,-1.754254 z m 0,7.017017 c 0,-1.052552 0.677813,-1.754254 1.694533,-1.754254 1.016721,0 1.694529,0.701702 1.694529,1.754254 0,1.052552 -0.677808,1.754253 -1.694529,1.754253 -1.01672,0 -1.694533,-0.701701 -1.694533,-1.754253 z m 0,7.017016 c 0,-1.052552 0.677813,-1.754254 1.694533,-1.754254 1.016721,0 1.694529,0.701702 1.694529,1.754254 0,1.052553 -0.677808,1.754255 -1.694529,1.754255 -1.01672,0 -1.694533,-0.701702 -1.694533,-1.754255 z M 20.273304,73.657377 c 0,-1.052553 0.677813,-1.754255 1.694533,-1.754255 1.01672,0 1.694534,0.701702 1.694534,1.754255 0,1.052552 -0.677814,1.754254 -1.694534,1.754254 -1.01672,0 -1.694533,-0.701702 -1.694533,-1.754254 z m 0,7.017017 c 0,-1.052552 0.677813,-1.754254 1.694533,-1.754254 1.01672,0 1.694534,0.701702 1.694534,1.754254 0,1.052552 -0.677814,1.754254 -1.694534,1.754254 -1.01672,0 -1.694533,-0.701702 -1.694533,-1.754254 z m 0,7.017018 c 0,-1.052554 0.677813,-1.754256 1.694533,-1.754256 1.01672,0 1.694534,0.701702 1.694534,1.754256 0,1.052552 -0.677814,1.754254 -1.694534,1.754254 -1.01672,0 -1.694533,-0.701702 -1.694533,-1.754254 z M 71.109326,192.94666 c 0,-1.05255 0.677813,-1.75424 1.694533,-1.75424 1.016721,0 1.694529,0.70169 1.694529,1.75424 0,1.05255 -0.677808,1.75426 -1.694529,1.75426 -1.01672,0 -1.694533,-0.70171 -1.694533,-1.75426 z m 0,7.01702 c 0,-1.05255 0.677813,-1.75426 1.694533,-1.75426 1.016721,0 1.694529,0.70171 1.694529,1.75426 0,1.05255 -0.677808,1.75426 -1.694529,1.75426 -1.01672,0 -1.694533,-0.70171 -1.694533,-1.75426 z m 0,7.01702 c 0,-1.05255 0.677813,-1.75426 1.694533,-1.75426 1.016721,0 1.694529,0.70171 1.694529,1.75426 0,1.05255 -0.677808,1.75425 -1.694529,1.75425 -1.01672,0 -1.694533,-0.7017 -1.694533,-1.75425 z M 20.273304,192.94666 c 0,-1.05255 0.677813,-1.75424 1.694533,-1.75424 1.01672,0 1.694534,0.70169 1.694534,1.75424 0,1.05255 -0.677814,1.75426 -1.694534,1.75426 -1.01672,0 -1.694533,-0.70171 -1.694533,-1.75426 z m 0,7.01702 c 0,-1.05255 0.677813,-1.75426 1.694533,-1.75426 1.01672,0 1.694534,0.70171 1.694534,1.75426 0,1.05255 -0.677814,1.75426 -1.694534,1.75426 -1.01672,0 -1.694533,-0.70171 -1.694533,-1.75426 z m 0,7.01702 c 0,-1.05255 0.677813,-1.75426 1.694533,-1.75426 1.01672,0 1.694534,0.70171 1.694534,1.75426 0,1.05255 -0.677814,1.75425 -1.694534,1.75425 -1.01672,0 -1.694533,-0.7017 -1.694533,-1.75425 z m 0,70.17016 v -63.15315 c 0,-0.96827 0.759229,-1.75425 1.694533,-1.75425 0.935306,0 1.694534,0.78598 1.694534,1.75425 v 5.26276 h 47.446955 v -5.26276 c 0,-0.96827 0.759229,-1.75425 1.694533,-1.75425 0.935307,0 1.694529,0.78598 1.694529,1.75425 v 63.15315 c 0,1.93654 -1.518456,3.50852 -3.389062,3.50852 H 23.662371 c -1.870606,0 -3.389067,-1.40341 -3.389067,-3.50852 z m 3.389067,-91.22121 c 0,0.96827 -0.759228,1.75425 -1.694534,1.75425 -0.935304,0 -1.694533,-0.78598 -1.694533,-1.75425 V 94.708428 c 0,-0.968269 0.759229,-1.754256 1.694533,-1.754256 0.935306,0 1.694534,0.785987 1.694534,1.754256 v 5.262769 h 47.446955 v -5.262769 c 0,-0.968269 0.759229,-1.754256 1.694533,-1.754256 0.935307,0 1.694529,0.785987 1.694529,1.754256 v 91.221222 c 0,0.96827 -0.759222,1.75425 -1.694529,1.75425 -0.935304,0 -1.694533,-0.78598 -1.694533,-1.75425 v -5.26276 H 23.662371 Z m 47.446955,-8.77127 v -15.7883 H 23.662371 v 15.7883 z m 0,-19.2968 V 142.07329 H 23.662371 v 15.78829 z m 0,-19.29679 v -15.7883 H 23.662371 v 15.7883 z m 0,-19.29681 V 103.4797 H 23.662371 v 15.78828 z m 0,157.88288 V 261.36258 H 23.662371 v 15.78828 z m 0,-19.29679 V 242.06578 H 23.662371 v 15.78829 z m 0,-19.29679 V 222.76899 H 23.662371 v 15.78829 z"
       id="path1"
       style="stroke-width:0.264582" /></g></svg>
